<?xml version="1.0" encoding="UTF-8"?><!DOCTYPE svg PUBLIC "-//W3C//DTD SVG 1.1//EN" "http://www.w3.org/Graphics/SVG/1.1/DTD/svg11.dtd"><svg xmlns="http://www.w3.org/2000/svg" xmlns:xlink="http://www.w3.org/1999/xlink" version="1.1" width="24" height="24" viewBox="0 0 24 24"><path d="M 7.64,19.97 C 7.14,20.21 6.54,20 6.31,19.5 L 4.13,14.76 1.62,16.78 C 1.45,16.92 1.24,17 1,17 A 1,1 0 0 1 0,16 V 1 A 1,1 0 0 1 1,0 C 1.24,0 1.47,0.09 1.64,0.23 L 1.65,0.22 13.14,9.86 c 0.43,0.36 0.48,0.99 0.13,1.41 -0.15,0.18 -0.36,0.3 -0.57,0.34 l -3.16,0.62 2.2,4.73 c 0.26,0.5 0.02,1.09 -0.48,1.32 z" style="fill:212121" /></svg>